<svg xmlns="http://www.w3.org/2000/svg" viewBox="0 0 224.6 224.6"><defs><style>.cls-1{fill:#fff;}.cls-2{fill:#a0ed6e;}</style></defs><title>CSV_ACTIVE</title><g id="Слой_2" data-name="Слой 2"><g id="Слой_1-2" data-name="Слой 1"><rect class="cls-1" x="21.8" y="25.8" width="182" height="165.5"/><path class="cls-2" d="M184.6,0H40A40,40,0,0,0,0,40V184.6a40,40,0,0,0,40,40H184.6a40,40,0,0,0,40-40V40A40,40,0,0,0,184.6,0ZM46.21,123q2.56,4.38,8.83,4.38,5.31,0,8.11-2.5t3-7.94h15.3a23.32,23.32,0,0,1-3.6,11.77,21.69,21.69,0,0,1-9.23,7.92A31.41,31.41,0,0,1,55,139.42q-12.58,0-19.82-8.2T28,108.07v-3.16a38.65,38.65,0,0,1,3.27-16.42,24.75,24.75,0,0,1,9.41-10.87,26.24,26.24,0,0,1,14.21-3.84q11.62,0,18.68,6.12t8,16.86H66.23q-.18-5.83-2.94-8.37t-8.42-2.54q-5.75,0-8.42,4.3t-2.81,13.73v4.52Q43.65,118.6,46.21,123Zm60.36-26.64q2.63,2,9.25,4.12A56.73,56.73,0,0,1,126.7,105Q137,111,137,121.49a15.59,15.59,0,0,1-6.31,13.15q-6.31,4.78-17.32,4.78a34.36,34.36,0,0,1-14.05-2.78A21.19,21.19,0,0,1,89.89,129a19.88,19.88,0,0,1-3.18-11.16h15.44q0,5.13,2.65,7.56t8.62,2.43a9.91,9.91,0,0,0,6-1.64,5.43,5.43,0,0,0,2.21-4.63,6.32,6.32,0,0,0-2.39-5.26q-2.39-1.89-8.4-3.9a80.56,80.56,0,0,1-9.82-3.9q-12.41-6.09-12.41-16.75a15,15,0,0,1,3.09-9.36,20,20,0,0,1,8.75-6.31,34,34,0,0,1,12.72-2.26,29.79,29.79,0,0,1,12.34,2.46,19.54,19.54,0,0,1,8.48,7,18.26,18.26,0,0,1,3,10.37H121.7a7.72,7.72,0,0,0-2.39-6.05,9.32,9.32,0,0,0-6.47-2.15,10.51,10.51,0,0,0-6.51,1.82,5.58,5.58,0,0,0-2.39,4.63Q103.94,94.35,106.57,96.34Zm71.56,42.21H161.3L140,74.7H157l12.67,46.48L182.43,74.7h17.19Z"/></g></g></svg>