<svg xmlns="http://www.w3.org/2000/svg" viewBox="0 0 140.33 140.33"><defs><style>.cls-1{fill:#fff;}.cls-2{fill:#a0ed6e;}</style></defs><title>LogoGreen</title><g id="Слой_2" data-name="Слой 2"><g id="Слой_1-2" data-name="Слой 1"><rect class="cls-1" x="14.5" y="17.3" width="111.33" height="105.67" rx="10" ry="10"/><path class="cls-2" d="M93,49.06a10.31,10.31,0,0,0-9.33,5q-3.12,5-3.17,14.5v3q0,9.6,3.17,14.71a10.37,10.37,0,0,0,9.42,5.11,10.22,10.22,0,0,0,9.17-5q3.19-5,3.24-14.5v-3q0-9.68-3.24-14.7A10.38,10.38,0,0,0,93,49.06Z"/><path class="cls-2" d="M115.34,0H25L0,25v90.35a25,25,0,0,0,25,25h90.35a25,25,0,0,0,25-25V25A25,25,0,0,0,115.34,0ZM67.07,98.68q-6.43,4.86-17.63,4.86a35,35,0,0,1-14.3-2.83,21.56,21.56,0,0,1-9.64-7.76,20.22,20.22,0,0,1-3.24-11.36H38q0,5.22,2.7,7.7t8.77,2.48a10.08,10.08,0,0,0,6.14-1.67,5.52,5.52,0,0,0,2.25-4.71A6.44,6.44,0,0,0,55.4,80q-2.43-1.92-8.55-4a81.56,81.56,0,0,1-10-4q-12.63-6.2-12.63-17a15.29,15.29,0,0,1,3.15-9.53,20.36,20.36,0,0,1,8.9-6.43,34.64,34.64,0,0,1,12.94-2.3,30.31,30.31,0,0,1,12.56,2.5,19.9,19.9,0,0,1,8.63,7.12c.09.13.17.27.25.41a29,29,0,0,0-3,5,33.27,33.27,0,0,0-2,5.17H57.88a7.86,7.86,0,0,0-2.43-6.16,9.49,9.49,0,0,0-6.58-2.19,10.69,10.69,0,0,0-6.63,1.85,5.68,5.68,0,0,0-2.43,4.71q0,2.5,2.68,4.53t9.42,4.2A57.79,57.79,0,0,1,63,68.56c.39.22.76.45,1.12.68v3.07A37.94,37.94,0,0,0,67.87,89a29,29,0,0,0,3.33,5.19A16.1,16.1,0,0,1,67.07,98.68ZM121.4,71.51a38.4,38.4,0,0,1-3,15.73A27.34,27.34,0,0,1,110.15,98l10.49,8.3L111,114.52,97,103.28a29,29,0,0,1-3.93.27,28.16,28.16,0,0,1-14.73-3.84,26.1,26.1,0,0,1-10-11,37.28,37.28,0,0,1-3.73-16.42V68.87A38.44,38.44,0,0,1,68.09,52a26.12,26.12,0,0,1,10-11.25,27.94,27.94,0,0,1,14.88-4,27.83,27.83,0,0,1,14.73,3.93,26.46,26.46,0,0,1,10.06,11.18,37.4,37.4,0,0,1,3.64,16.62Z"/></g></g></svg>