<svg xmlns="http://www.w3.org/2000/svg" viewBox="0 0 224.6 224.6"><defs><style>.cls-1{fill:#fff;}.cls-2{fill:#fa5353;}</style></defs><title>No_1</title><g id="Слой_2" data-name="Слой 2"><g id="Слой_1-2" data-name="Слой 1"><rect class="cls-1" x="16.47" y="23.8" width="191.67" height="175"/><path class="cls-2" d="M184.6,0H40A40,40,0,0,0,0,40V184.6a40,40,0,0,0,40,40H184.6a40,40,0,0,0,40-40V40A40,40,0,0,0,184.6,0Zm-2.15,162.6L162.6,182.45l-50.3-50.3L62,182.45,42.15,162.6l50.3-50.3L42.15,62,62,42.15l50.3,50.3,50.3-50.3L182.45,62l-50.3,50.3Z"/></g></g></svg>