<svg xmlns="http://www.w3.org/2000/svg" viewBox="0 0 224.6 224.6"><defs><style>.cls-1{fill:#fff;}.cls-2{fill:#a0ed6e;}</style></defs><title>OkHover_1</title><g id="Слой_2" data-name="Слой 2"><g id="Слой_1-2" data-name="Слой 1"><path class="cls-1" d="M184.6,0H40A40,40,0,0,0,0,40V184.6a40,40,0,0,0,40,40H184.6a40,40,0,0,0,40-40V40A40,40,0,0,0,184.6,0ZM81.39,182.45l-.2-.2-.2.2L20.76,122.23l19.85-19.85,40.57,40.57L182,42.15,201.84,62Z"/><polygon class="cls-2" points="40.62 102.38 20.76 122.23 80.99 182.45 81.19 182.25 81.39 182.45 201.84 62.01 181.99 42.15 81.19 142.95 40.62 102.38"/><path class="cls-2" d="M184.6,10a30,30,0,0,1,30,30V184.6a30,30,0,0,1-30,30H40a30,30,0,0,1-30-30V40A30,30,0,0,1,40,10H184.6m0-10H40A40,40,0,0,0,0,40V184.6a40,40,0,0,0,40,40H184.6a40,40,0,0,0,40-40V40a40,40,0,0,0-40-40Z"/></g></g></svg>