<svg xmlns="http://www.w3.org/2000/svg" viewBox="0 0 224.6 224.6"><defs><style>.cls-1{fill:#fff;}.cls-2{fill:#fa5353;}</style></defs><title>NoHover</title><g id="Слой_2" data-name="Слой 2"><g id="Слой_1-2" data-name="Слой 1"><path class="cls-1" d="M184.6,0H40A40,40,0,0,0,0,40V184.6a40,40,0,0,0,40,40H184.6a40,40,0,0,0,40-40V40A40,40,0,0,0,184.6,0Zm-2.15,162.6L162.6,182.45l-50.3-50.3L62,182.45,42.15,162.6l50.3-50.3L42.15,62,62,42.15l50.3,50.3,50.3-50.3L182.45,62l-50.3,50.3Z"/><polygon class="cls-2" points="162.6 42.15 112.3 92.45 62.01 42.15 42.15 62.01 92.45 112.3 42.15 162.6 62.01 182.45 112.3 132.15 162.6 182.45 182.45 162.6 132.15 112.3 182.45 62.01 162.6 42.15"/><path class="cls-2" d="M184.6,10a30,30,0,0,1,30,30V184.6a30,30,0,0,1-30,30H40a30,30,0,0,1-30-30V40A30,30,0,0,1,40,10H184.6m0-10H40A40,40,0,0,0,0,40V184.6a40,40,0,0,0,40,40H184.6a40,40,0,0,0,40-40V40a40,40,0,0,0-40-40Z"/></g></g></svg>