<svg xmlns="http://www.w3.org/2000/svg" viewBox="0 0 224.6 224.6"><defs><style>.cls-1{fill:#999;}</style></defs><title>PenHover</title><g id="Слой_2" data-name="Слой 2"><g id="Слой_1-2" data-name="Слой 1"><rect class="cls-1" x="16.47" y="16.8" width="191.67" height="191.67"/><path d="M184.6,0H40A40,40,0,0,0,0,40V184.6a40,40,0,0,0,40,40H184.6a40,40,0,0,0,40-40V40A40,40,0,0,0,184.6,0ZM42.66,148.66l15.46,15.46-19.46,4Zm37.4,41.44c-22.25,7.5-9.75,11.25-9.75,11.25L63.6,203.6s-26.79-.5,13.46-16.5c36-14.31-23.07-14-36-13.8l-2.42.05,2.42-.05C112.78,171.85,102.06,182.69,80.06,190.1ZM66,160.65,46.15,140.8,140.74,46.2l19.85,19.85ZM170.52,56.13,150.66,36.28l15.93-15.93L186.44,40.2Z"/></g></g></svg>