<svg xmlns="http://www.w3.org/2000/svg" viewBox="0 0 224.6 224.6"><defs><style>.cls-1{fill:#999;}</style></defs><title>ReHover</title><g id="Слой_2" data-name="Слой 2"><g id="Слой_1-2" data-name="Слой 1"><rect class="cls-1" x="16.47" y="13.53" width="191.67" height="197.55"/><path d="M184.6,0H40A40,40,0,0,0,0,40V184.6a40,40,0,0,0,40,40H184.6a40,40,0,0,0,40-40V40A40,40,0,0,0,184.6,0ZM112.3,197.47A85.18,85.18,0,0,1,29.52,92.28L56.82,98.1A57.32,57.32,0,1,0,96,57.57l4.31,11.32L54.45,58.66,81.93,20.52,86,31.28A85.17,85.17,0,1,1,112.3,197.47Z"/></g></g></svg>