<svg xmlns="http://www.w3.org/2000/svg" viewBox="0 0 224.6 224.6"><defs><style>.cls-1{fill:#fff;}</style></defs><title>SQL</title><g id="Слой_2" data-name="Слой 2"><g id="Слой_1-2" data-name="Слой 1"><rect class="cls-1" x="16.13" y="21.97" width="191.67" height="175"/><path d="M115.51,86.5a10,10,0,0,0-9,4.81q-3,4.81-3.07,14.07v2.9q0,9.31,3.07,14.27a10.06,10.06,0,0,0,9.14,5,9.92,9.92,0,0,0,8.9-4.89q3.1-4.89,3.14-14.07v-2.9q0-9.4-3.14-14.27A10.07,10.07,0,0,0,115.51,86.5Z"/><path d="M184.6,0H40A40,40,0,0,0,0,40V184.6a40,40,0,0,0,40,40H184.6a40,40,0,0,0,40-40V40A40,40,0,0,0,184.6,0ZM51.73,96.82q2.6,2,9.14,4.07a56,56,0,0,1,10.74,4.52q10.22,5.89,10.22,16.24a15.39,15.39,0,0,1-6.23,13q-6.24,4.72-17.1,4.72a33.93,33.93,0,0,1-13.88-2.75,20.92,20.92,0,0,1-9.35-7.53,19.62,19.62,0,0,1-3.14-11H47.35q0,5.07,2.62,7.47t8.51,2.4a9.78,9.78,0,0,0,6-1.62,5.36,5.36,0,0,0,2.19-4.57,6.24,6.24,0,0,0-2.36-5.2q-2.36-1.86-8.29-3.85a79.48,79.48,0,0,1-9.7-3.85Q34,102.82,34,92.3a14.83,14.83,0,0,1,3.05-9.24,19.75,19.75,0,0,1,8.64-6.24,33.62,33.62,0,0,1,12.56-2.23A29.41,29.41,0,0,1,70.45,77a19.3,19.3,0,0,1,8.38,6.91,18,18,0,0,1,3,10.24H66.67a7.62,7.62,0,0,0-2.36-6,9.2,9.2,0,0,0-6.39-2.12,10.38,10.38,0,0,0-6.43,1.8,5.51,5.51,0,0,0-2.36,4.57Q49.13,94.85,51.73,96.82Zm91.36,11.45a37.26,37.26,0,0,1-2.9,15.26,26.53,26.53,0,0,1-8,10.46L142.35,142l-9.4,8L119.4,139.1a28.16,28.16,0,0,1-3.81.26,27.32,27.32,0,0,1-14.29-3.72A25.32,25.32,0,0,1,91.58,125,36.17,36.17,0,0,1,88,109.05v-3.33a37.3,37.3,0,0,1,3.4-16.37,25.33,25.33,0,0,1,9.7-10.91,28.84,28.84,0,0,1,28.73,0,25.68,25.68,0,0,1,9.76,10.85,36.28,36.28,0,0,1,3.53,16.13Zm49.4,30.22H150.84v-63H166v51.35h26.46Z"/></g></g></svg>