<svg xmlns="http://www.w3.org/2000/svg" viewBox="0 0 224.6 224.6"><defs><style>.cls-1{fill:#fff;}</style></defs><title>UNK.svg</title><g id="Слой_2" data-name="Слой 2"><g id="Слой_1-2" data-name="Слой 1"><rect width="224.6" height="224.6" rx="40" ry="40"/><path class="cls-1" d="M96.25,139.82q0-14.83,3.35-23.41a36.62,36.62,0,0,1,10.87-14.88A72.27,72.27,0,0,0,121.9,90a18.82,18.82,0,0,0,3.91-11.53q0-15.33-13.2-15.34a12.25,12.25,0,0,0-9.85,4.47q-3.76,4.47-4,12.09H64.47q.2-20.31,12.8-31.64t35.34-11.32q22.65,0,35.09,10.46T160.14,77a34.65,34.65,0,0,1-3.35,15.34A51.84,51.84,0,0,1,146,106.41l-11.68,10.87a27.48,27.48,0,0,0-6.91,9.8,38.91,38.91,0,0,0-2.13,12.75ZM92.09,170.7a15.76,15.76,0,0,1,5.43-12.34,19.68,19.68,0,0,1,13.56-4.82,19.67,19.67,0,0,1,13.56,4.82,16.73,16.73,0,0,1,0,24.68,19.66,19.66,0,0,1-13.56,4.82A19.67,19.67,0,0,1,97.52,183,15.76,15.76,0,0,1,92.09,170.7Z"/></g></g></svg>